<?xml version="1.0" encoding="UTF-8" standalone="no"?>
<svg
   xmlns:dc="http://purl.org/dc/elements/1.1/"
   xmlns:cc="http://creativecommons.org/ns#"
   xmlns:rdf="http://www.w3.org/1999/02/22-rdf-syntax-ns#"
   xmlns:svg="http://www.w3.org/2000/svg"
   xmlns="http://www.w3.org/2000/svg"
   xmlns:sodipodi="http://sodipodi.sourceforge.net/DTD/sodipodi-0.dtd"
   xmlns:inkscape="http://www.inkscape.org/namespaces/inkscape"
   inkscape:version="1.0beta2 (unknown)"
   inkscape:export-ydpi="105.93"
   inkscape:export-xdpi="105.93"
   inkscape:export-filename="/home/seba/Proyectos/seblaz.github.io/src/assets/img/favicon.png"
   sodipodi:docname="SB favicon.svg"
   id="svg15"
   viewBox="0 0 58 58"
   version="1.1"
   height="58"
   width="58">
  <metadata
     id="metadata19">
    <rdf:RDF>
      <cc:Work
         rdf:about="">
        <dc:format>image/svg+xml</dc:format>
        <dc:type
           rdf:resource="http://purl.org/dc/dcmitype/StillImage" />
        <dc:title></dc:title>
      </cc:Work>
    </rdf:RDF>
  </metadata>
  <sodipodi:namedview
     inkscape:current-layer="svg15"
     inkscape:window-maximized="1"
     inkscape:window-y="27"
     inkscape:window-x="0"
     inkscape:cy="34.433486"
     inkscape:cx="38.847009"
     inkscape:zoom="11.045577"
     fit-margin-bottom="0"
     fit-margin-right="0"
     fit-margin-left="0"
     fit-margin-top="0"
     showgrid="false"
     id="namedview17"
     inkscape:window-height="1016"
     inkscape:window-width="1920"
     inkscape:pageshadow="2"
     inkscape:pageopacity="0"
     guidetolerance="10"
     gridtolerance="10"
     objecttolerance="10"
     borderopacity="1"
     inkscape:document-rotation="0"
     bordercolor="#666666"
     pagecolor="#ffffff" />
  <defs
     id="defs7">
    <linearGradient
       gradientTransform="translate(1.1769416,-1.0864077)"
       gradientUnits="userSpaceOnUse"
       y2="5"
       x2="50"
       y1="68"
       x1="0"
       id="SB-gradient">
      <stop
         id="stop2"
         offset="0"
         stop-color="#C6F0BF" />
      <stop
         id="stop4"
         offset="1"
         stop-color="#EAF9E7" />
    </linearGradient>
  </defs>
  <rect
     inkscape:export-ydpi="105.93"
     inkscape:export-xdpi="105.93"
     y="0"
     x="0"
     height="58"
     width="58"
     id="rect21"
     style="fill:#47cc31;fill-opacity:1;fill-rule:evenodd;stroke-width:0.852941" />
  <path
     inkscape:connector-curvature="0"
     id="path9"
     style="font-variant-ligatures:normal;font-variant-caps:normal;font-variant-numeric:normal;fill:#ffffff;fill-opacity:1"
     stroke-width="4.43"
     fill="#C6F0BF"
     d="m 21.808252,37.895874 v 12.1 h 7.68 q 3.86,0 5.71,-1.48 1.87,-1.5 1.87,-4.58 0,-3.1 -1.87,-4.56 -1.85,-1.48 -5.71,-1.48 z m 0,-13.6 v 9.95 h 7.09 q 3.51,0 5.21,-1.22 1.73,-1.24 1.73,-3.76 0,-2.5 -1.73,-3.74 -1.71,-1.24 -5.21,-1.24 z m -4.79,-3.67 h 12.2 q 5.47,0 8.44,2.12 2.96,2.12 2.96,6.04 0,3.03 -1.52,4.82 -1.52,1.79 -4.46,2.23 3.53,0.708 5.47,2.96 1.97,2.23 1.97,5.59 0,4.42 -3.22,6.83 -3.22,2.41 -9.17,2.41 h -12.7 z" />
  <path
     inkscape:connector-curvature="0"
     id="path11"
     style="font-variant-ligatures:normal;font-variant-caps:normal;font-variant-numeric:normal;fill:#ffffff;fill-opacity:1"
     stroke-width="4.43"
     fill="#EAF9E7"
     d="m 38.908252,5.3958737 v 4.36 c -1.82,-0.811 -3.53,-1.42 -5.14,-1.81 -1.61,-0.398 -3.17,-0.597 -4.67,-0.597 -2.61,0 -4.62,0.472 -6.04,1.42 -1.41,0.944 -2.11,2.2900003 -2.11,4.0200003 0,1.46 0.466,2.57 1.4,3.32 0.948,0.737 3.39,1.3 5.29,1.83 0.945,0.265 1.01,0.314 2.86,0.839 1.85,0.528 5.72,2.01 7.41,3.61 1.71,1.59 2.8,3.35 2.8,6.03 0,3.2 -0.81,5.43 -3.12,7.08 -2.29,1.65 -5.66,2.48 -10.1,2.48 -1.67,0 -3.46,-0.177 -5.36,-0.531 -1.88,-0.354 -3.08,-0.786 -5.1,-1.48 l 6.7e-4,-4.04 c 0.635,0.254 3.09,1.13 4.96,1.64 1.86,0.516 3.42,0.655 5.22,0.655 2.73,0 5.12,-0.383 6.61,-1.39 1.49,-1 2.06,-1.97 1.98,-3.92 -0.0595,-1.49 -0.569,-2.4 -1.52,-3.33 -0.432,-0.373 -1.01,-0.811 -1.67,-1.29 -0.887,-0.65 -2,-1.29 -3.42,-1.61 l -2.92,-0.531 c -3.57,-0.663 -6.15,-1.7 -7.75,-3.12 -1.6,-1.42 -2.39,-3.38 -2.39,-5.9 0,-2.92 1.1,-5.2200003 3.29,-6.9000003 2.21,-1.68 5.25,-2.52 9.12,-2.52 1.66,0 3.35,0.14 5.07,0.42 1.72,0.28 3.48,0.7 5.29,1.26 z" />
</svg>
