<?xml version="1.0" encoding="UTF-8"?>
<svg version="1.1" viewBox="0 0 929 745.20703" xmlns="http://www.w3.org/2000/svg">
<g transform="translate(-43.975 -1156.9)" fill="#000000">
<path d="m803.91 1800.4c-3.8529-0.2592-7.4336 2.6568-7.4336 7.4336 0 2.4246 0.65766 3.9039 2.2227 5 3.5275 2.4707 8.2909 1.991 10.705-1.0781 2.7218-3.4602 2.6159-5.9116-0.38281-8.9102-1.5535-1.5535-3.36-2.3275-5.1113-2.4453zm-344.46 3.0664c-3.8582 0.029-4.9727 2.1896-4.9727 8.4902 0 3.5734-0.64218 8.0327-1.4258 9.9082-1.3082 3.1309-1.8185 3.4341-6.2441 3.7168-4.4706 0.2855-4.8616 0.5262-5.3887 3.3086-0.9286 4.901-0.25609 5.5 6.166 5.5h5.8926l0.043 22.75c0.0242 12.512 0.43445 26.114 0.91015 30.225 0.7593 6.5618 1.2429 7.8128 3.9707 10.25 3.4785 3.1081 9.2466 3.6844 16.576 1.6582 4.7549-1.3144 5.4975-2.2525 4.5508-5.75-0.6792-2.5088-0.9779-2.6166-6.4082-2.2832-3.5113 0.2155-6.2622-0.1197-7.1699-0.873-1.2311-1.0217-1.4727-5.7042-1.4727-28.557v-27.336l7.75-0.293 7.75-0.291v-8l-7.7168-0.291-7.7168-0.293-0.28321-10.707-0.2832-10.709-2.7012-0.3125c-0.66788-0.077-1.275-0.1154-1.8262-0.1113zm300 0c-3.8582 0.029-4.9727 2.1896-4.9727 8.4902 0 3.5734-0.65222 8.0575-1.4492 9.9649-1.3048 3.1228-1.8394 3.4687-5.377 3.4687-4.1566 0-5.8431 1.2256-6.1914 4.5-0.438 4.1179-0.0607 4.4018 6.2676 4.7032l6.25 0.2968 0.5 29.834 0.5 29.834 3.2656 2.916c3.6762 3.283 8.766 3.8177 16.877 1.7754 5.0903-1.2818 5.8773-2.3627 4.4492-6.1191-0.9435-2.4816-1.2548-2.579-6.5234-2.0352-8.9364 0.9223-8.5684 2.178-8.5684-29.285v-27.336l7.75-0.293 7.75-0.291v-8l-7.7168-0.291-7.7168-0.293-0.28321-10.707-0.2832-10.709-2.7012-0.3125c-0.66788-0.077-1.275-0.1154-1.8262-0.1113zm-127.96 21.121c-0.85478 0.021-1.73 0.082-2.625 0.1875-6.2705 0.7355-10.563 2.4851-16.256 6.623l-4.3652 3.1719-3.6348-3.4707c-4.7906-4.5763-6.8445-5.5406-13.479-6.3203-6.4546-0.7586-13.496 1.1537-19.928 5.4102-3.1958 2.1148-4.1676 2.384-4.541 1.2636-0.2613-0.7839-1.6232-2.4897-3.0273-3.791-2.0495-1.8994-3.4497-2.3066-7.1055-2.0683-4.3367 0.2826-4.5701 0.4509-4.8691 3.5527-0.2354 2.4435 0.1392 3.3982 1.5 3.8223 5.0108 1.5615 4.7824 0.096 5.3144 34.029l0.5 31.893h9l0.26562-27.953c0.2606-27.366 0.313-28.003 2.5-30.348 4.1417-4.4397 9.6813-6.6221 16.904-6.6621 5.7123-0.032 7.0404 0.3111 9.252 2.3887 4.2751 4.0163 4.8707 7.9365 5.4922 36.074l0.58594 26.5h9l0.0742-28.186c0.0824-31.206-0.23657-29.67 7.0488-33.94 5.5783-3.2691 13.609-4.14 18.67-2.0254 6.3503 2.6533 7.0212 5.4976 7.709 32.65 0.6367 25.133 1.1884 27.919 6.2148 31.44 2.8837 2.0198 12.091 2.101 13.734 0.1211 0.6571-0.7917 1.0483-2.7042 0.8711-4.25-0.28031-2.4442-0.801-2.8512-3.9961-3.1172-6.0869-0.5067-6.2627-1.1533-6.9297-25.596-0.7007-25.679-1.5201-29.152-8.3789-35.475-4.4905-4.1392-9.5185-6.0703-15.502-5.9258zm-116.7 0.4023c-7.8748 0.086-9.9858 0.4932-14.822 2.8594-6.535 3.1973-10.774 8.3759-13.004 15.887-2.0462 6.8892-2.0551 32.392-0.0137 39.266 2.8177 9.4884 10.397 15.799 20.949 17.439h2e-3c5.6861 0.884 16.104 0.3224 21.914-1.1816 5.2384-1.3561 11.961-7.8201 14.66-14.094 1.7436-4.053 2.341-7.8071 2.75-17.279 0.8614-19.945-1.7961-29.955-9.7598-36.772-5.3752-4.6009-11.471-6.2468-22.676-6.125zm344.81 0.018c-11.723-0.032-16.444 1.253-21.963 5.9766-5.3086 4.544-7.7263 9.2394-9.2441 17.955-1.5059 8.6475-0.6569 29.366 1.4414 35.164 3.2985 9.1134 9.8168 14.475 19.693 16.197 7.4858 1.3056 19.524 0.3175 24.936-2.0469 5.8151-2.5407 8.606-5.2179 11.848-11.363 2.479-4.6995 2.6585-5.9735 2.9863-21.201 0.2698-12.534-5e-3 -17.416-1.2109-21.564-2.2819-7.8495-6.4607-13.025-13.164-16.305-5.0153-2.4538-6.8507-2.7895-15.322-2.8125zm78.252 0.094c-0.69107-0.01-1.4454-0.01-2.2793 0-8.6324 0.088-15.558 2.1319-21.822 6.4414l-4.2227 2.9063-1.4414-3.4492c-1.6923-4.0502-4.1751-5.6114-8.9238-5.6114-4.4846 0-6.3872 2.1674-4.8555 5.5293 0.6191 1.3588 1.7406 2.4707 2.4922 2.4707 0.7515 0 2.1037 0.8156 3.0059 1.8125 1.4331 1.5836 1.673 5.7195 1.9043 32.75l0.26563 30.938h9l0.5-27.047c0.5645-30.536 0.58432-30.622 8.2324-34.324 12.806-6.1993 25.814-4.4591 30.465 4.0762 1.5412 2.8283 1.8666 6.7355 2.2988 27.623l0.50391 24.33 3.7891 3.4688c3.5237 3.227 4.1878 3.4498 9.5 3.1719l5.7109-0.2989v-4c0-3.7036-0.2223-4.0251-3-4.334-6.2647-0.6968-6.5-1.5022-6.5-22.271 0-10.338-0.48854-21.075-1.0859-23.861-1.5601-7.2743-6.3507-13.77-12.816-17.381-4.1504-2.3177-5.8832-2.8822-10.721-2.9414zm-234.04 0.3105c-8.9005-0.021-23.933 2.1729-25.479 3.7188-0.4203 0.4206-0.44488 3.0131-0.0547 5.7617 0.6719 4.7329 0.88122 5.0137 3.9531 5.3105 2.6576 0.2568 3.4094-0.1217 4.1621-2.1015 1.0339-2.7193 5.46-3.711 16.57-3.711 11.894 0 15.253 2.9146 15.744 13.668l0.26563 5.832-14.5 0.5489c-15.702 0.5948-20.04 1.7493-25.377 6.7539-3.7172 3.4857-6.5736 9.7168-6.6016 14.398-0.0811 13.663 6.3769 22.395 18.305 24.754 9.4477 1.868 19.451 0.2903 25.588-4.0351 3.2212-2.2707 4.6267-2.7976 4.9414-1.8536 0.2419 0.7256 1.4773 2.3583 2.7461 3.627 2.5453 2.5453 6.2851 2.9385 11.303 1.1894 2.8002-0.9763 3.1667-1.5114 2.9004-4.25-0.2707-2.7847-0.66887-3.1434-3.5723-3.2324-1.7966-0.055-3.5966-0.4298-4-0.832-0.4033-0.4023-0.99074-11.608-1.3066-24.9-0.4696-19.759-0.88993-24.895-2.2988-28.154-4.0018-9.2567-9.973-12.46-23.289-12.492zm-382.18 0.1035c-9.7885-0.038-23.633 1.9529-25.455 3.7754-0.5757 0.5759-0.60326 2.8255-0.0684 5.7715 0.8171 4.5005 1.0966 4.8485 4.123 5.1406 2.6798 0.2587 3.4118-0.1188 4.1894-2.164 0.8261-2.1729 1.7508-2.5639 7.5195-3.1817 17.755-1.9014 22.988 0.5721 24.547 11.6 0.49889 3.5299 0.58871 6.7154 0.19921 7.0801s-7.234 0.8308-15.209 1.0352c-13.846 0.3549-14.743 0.5057-19.893 3.332-3.236 1.7763-6.435 4.537-8 6.9043-2.3006 3.48-2.6074 4.954-2.6074 12.514 0 7.2993 0.36788 9.2122 2.4883 12.916 2.8147 4.9166 8.558 8.7532 15.158 10.127 4.6828 0.9747 14.158 0.4919 19.9-1.0136 1.9512-0.5115 4.8483-2.2865 6.4375-3.9453 3.2157-3.3565 4.5156-3.7799 4.5156-1.4707 0 2.7954 4.6638 6.4554 8.2051 6.4394 5.241-0.024 8.2949-2.053 8.2949-5.5137 0-2.6909-0.3087-2.9707-3.2832-2.9707-1.8293 0-3.7045-0.6643-4.2344-1.5-0.5231-0.825-0.96928-9.825-0.98828-20-0.0552-28.845-1.6884-35.684-9.916-41.5-3.8978-2.7553-5.0417-3.028-14.025-3.3398-0.61175-0.021-1.2459-0.033-1.8984-0.035zm37.346 0.375v8l4.6562 0.3008 4.6543 0.3008 0.45312 22.699c0.5064 25.45 1.0125 27.959 7.0293 34.795 4.1972 4.7683 6.4828 6.3043 11.205 7.5293h2e-3c1.6519 0.4278 7.3183 0.674 12.596 0.5469 8.2774-0.1992 10.336-0.6121 14.953-3.0078 5.2581-2.728 5.3826-2.7432 6.9023-0.8379 2.6709 3.3487 5.8456 4.3891 11.16 3.6582 6.1394-0.8444 7.9858-2.4936 6.9648-6.2227-0.6882-2.5139-1.1216-2.7344-4.8223-2.455-2.5469 0.1922-4.3833-0.1814-4.9121-1-0.4643-0.7188-1.0688-15.482-1.3438-32.807l-0.5-31.5h-19v8l4.75 0.3047 4.75 0.3047v22.695c-1e-3 19.631-0.2377 23.159-1.75 26.125-2.8765 5.641-6.327 7.4839-14.807 7.9121-9.9116 0.5005-13.793-0.3475-17.209-3.7636-4.7687-4.7687-5.5311-9.2922-6.1582-36.578l-0.57422-25h-9.5zm430 0v8l5.75 0.2989 5.75 0.3007v55.791l-4.75 0.3046c-4.3871 0.2816-4.7744 0.5208-5.0742 3.1387-0.1785 1.559-0.076 3.4837 0.22852 4.2774 0.4539 1.1825 3.1286 1.3935 14.824 1.166l14.271-0.2774v-8l-4.7363-0.3047-4.7363-0.3046-0.26367-32.195-0.26367-32.195h-10.5zm-271.98 7.6543c0.70793 0.017 1.4318 0.055 2.1699 0.1133 8.0002 0.6353 12.412 3.3517 15.438 9.502 2.1184 4.3063 2.3296 6.0767 2.3516 19.73 0.0218 13.698-0.17737 15.41-2.2969 19.713-1.3603 2.7619-3.7372 5.5871-5.7422 6.8262-3.8801 2.3981-15.551 3.4874-21.422 2-4.3555-1.1035-9.534-6.6407-10.938-11.695-1.4514-5.2269-1.3654-28.651 0.12305-33.619 2.5191-8.4078 9.6974-12.824 20.316-12.57zm340.95 0c10.592-0.2285 18.182 4.3271 20.42 12.389 0.6037 2.1742 1.0977 9.8031 1.0977 16.953s-0.49396 14.779-1.0977 16.953c-1.4034 5.055-6.3825 10.034-11.438 11.438-5.3061 1.4731-13.104 1.3242-17.77-0.3399-9.0708-3.235-11.184-8.6288-11.184-28.551 0-13.148 0.21581-14.94 2.3203-19.213 3.0242-6.14 7.4902-8.884 15.492-9.5195 0.73215-0.058 1.452-0.094 2.1582-0.1094zm-138.23 28.641-0.42578 9.8496c-0.5011 11.575-2.23 15.791-7.3496 17.93-4.4626 1.865-18.886 1.813-23.252-0.084-5.6058-2.4356-8.0025-12.275-4.8359-19.854 2.299-5.5024 6.9126-7.0339 22.494-7.4688zm-393.56 0.2011h11.318v7.0567c0 9.5012-1.5684 15.154-5.1582 18.596-2.8115 2.6958-3.5073 2.8635-13.154 3.1426-8.8432 0.2558-10.62 0.025-13.463-1.75-3.9509-2.4674-5.2207-5.4863-5.2207-12.359 8e-3 -11.352 5.8357-14.686 25.678-14.686z"/>
<path d="m182.43 1798.8c-2.771 0.1042-5.5416 1.102-7.5684 3.1289-4.1737 4.1736-2.5136 12.276 2.9688 14.488 8.5168 3.4369 17.291-3.1621 15.012-11.291-1.1741-4.1871-5.7937-6.4999-10.412-6.3261zm64.688 25.713c-6.4363 0-13.715 1.265-18.621 3.4668l-5.8438 2.6231-3.1777-2.3477c-2.5051-1.8493-4.3434-2.3176-8.6738-2.2129-3.0218 0.073-5.8808 0.523-6.3535 1-1.423 1.4357 0.11597 9.4806 1.918 10.025 4.7517 1.4367 4.5789 0.3504 5.1074 31.949l0.5 29.893h15l0.5-26.672c0.4984-26.587 0.50781-26.679 2.9414-29.268 2.5482-2.7104 10.375-5.5606 15.271-5.5606 4.3105 0 9.4142 2.5032 11.459 5.6192 1.5773 2.4036 1.8966 5.6683 2.3281 23.832 0.5609 23.614 1.3788 26.793 8.0859 31.387 2.8906 1.9798 4.3712 2.279 9.6621 1.9531 7.9249-0.4881 8.742-1.2889 7.6191-7.4628-0.8539-4.6948-0.98865-4.8419-4.873-5.3282l-3.9941-0.5-0.52734-21.033c-0.5147-20.553-0.59017-21.166-3.3555-26.818-3.3612-6.8701-9.665-11.958-17.02-13.736-2.2756-0.5502-5.0275-0.8094-7.9531-0.8086zm-98.967 1.0586c-3.673 0.017-6.4581 0.2237-6.7793 0.5489-0.4283 0.4335-4.2323 12.039-8.4531 25.789s-8.0422 25.675-8.4922 26.5c-1.0539 1.9326-0.4151 3.7875-9.3125-27l-7.3691-25.5h-7.3867c-8.3625 0-8.3021-0.086-5.8359 8.6485 1.2769 4.5227 1.1512 5.1701-4.6191 24.014-3.2615 10.651-6.3492 19.584-6.8613 19.852s-4.3583-11.439-8.5488-26.014l-7.6211-26.5h-21.898v12l4.4629 0.5 4.4648 0.5 9.082 28.5c4.9953 15.675 9.384 29.288 9.7539 30.25 0.5668 1.4746 1.9964 1.75 9.082 1.75 5.5479 0 8.7371-0.4253 9.3711-1.25 0.5285-0.6875 3.3828-8.3375 6.3438-17 2.9608-8.6625 5.6814-15.75 6.0449-15.75s2.7548 6.6375 5.3144 14.75c6.7469 21.384 5.09 19.25 14.936 19.25 5.5437 0 8.7238-0.4249 9.3535-1.25 0.5247-0.6875 5.1404-13.625 10.258-28.75 5.1173-15.125 9.695-28.26 10.172-29.189 0.5255-1.0241 2.3424-1.812 4.6133-2l3.748-0.3106v-12l-9.9121-0.289c-1.3629-0.04-2.6858-0.054-3.9102-0.049zm19.822 0.3379v12l4.25 0.3067 4.25 0.3086v48.752l-2.75 0.3164c-2.4739 0.2847-2.7808 0.7555-3.0625 4.6817-0.1722 2.4005-0.0699 4.9996 0.22851 5.7773 0.4387 1.1456 3.1797 1.3598 14.312 1.1348l13.771-0.2774v-5.4902c0-5.3182-0.094-5.507-3-6.0098l-3-0.5176-0.5-30.492-0.5-30.49h-12z"/>
</g>
<g transform="translate(-939.26 -1902.4)">
<path d="m1405.6 1903.4c-1.8016-0.015-3.6049-0.01-5.4082 0.012-19.235 0.2347-38.549 2.5662-57.584 7.0703-82.72 19.574-151.28 78.594-182.42 157.05-28.655 72.18-23.692 153.7 13.451 220.96l4.9707 9 0.5 44.5 0.5 44.5 44.5 0.5 44.5 0.5 17.5 8.7461c30.252 15.118 59.786 23.449 96 27.082 8.1289 0.8154 36.572 0.5944 46.145-0.3594 43.972-4.3804 85.039-18.913 120.86-42.764 68.793-45.81 110.58-118.39 116.01-201.54 5.6101-85.784-33.628-170.14-103.6-222.73-45.171-33.951-100.07-52.068-155.92-52.527z" fill="#f79e21"/>
<path d="m1179.6 2386.5 88.742 0.9874c6.8355 2.413 9.0761 5.0602 16.052 8.8055 29.618 14.675 55.944 22.531 89.098 26.586 16.192 1.9802 52.22 1.2016 68.941-1.4883 56.831-9.1423 104.06-32.919 144.12-72.564 22.707-22.469 37.231-42.184 50.375-68.377 9.6592-17.948 16.558-32.659 20.426-51.484 4.6323-22.543 7.0016-46.227 7.9575-66.811 1.5369-33.094-7.8663-64.914-19.73-97.842-9.281-25.761-40.621-71.15-56.039-83.995-179.47 169.66-232.55 235.71-409.95 406.18z" fill="#e5941e"/>
<path d="m1403.6 1990.5c-9.0059 0-10.524 0.2765-15.283 2.7832-7.0493 3.7131-12.842 9.6846-16.068 16.566-2.2133 4.7208-2.6484 7.0437-2.6484 14.148s0.4351 9.4277 2.6484 14.148c4.1182 8.784 12.211 15.81 21.852 18.973 1.375 0.4511 6.325 0.689 11 0.5274 6.9069-0.2387 9.4914-0.8028 13.785-3.0059 6.9979-3.5907 12.819-9.5665 16.066-16.494 2.2133-4.7208 2.6484-7.0438 2.6484-14.148s-0.4351-9.4275-2.6484-14.148c-3.2264-6.8817-9.0172-12.853-16.066-16.566-4.7589-2.5067-6.2793-2.7832-15.285-2.7832zm-93.5 92.998c-11.323 9e-4 -16.255 1.8524-23.838 8.9454-6.8432 6.401-10.533 14.79-10.582 24.055-0.05 9.5035 2.3212 15.777 9.0429 23.926 7.478 9.0659 9.6866 14.297 9.7461 23.074 0.057 8.4427-2.769 15.384-9.3613 22.994-8.6115 9.9416-11.434 20.344-8.5762 31.605 5.4886 21.631 28.222 32.37 48.254 22.795 1.8861-0.9016 3.7125-2.0194 5.4395-3.3028 2.6215-2.6615 5.3031-5.376 7.8926-8.0097 1.6831-2.3323 3.0616-4.826 4.0254-7.3809 1.7451-4.6263 2.0686-7.21 1.7148-13.701-0.5159-9.465-2.7248-14.745-9.4609-22.613-6.8852-8.0423-8.7676-12.847-8.7676-22.387 0-9.6546 1.8667-14.231 9.3672-22.969 7.029-8.1886 9.3745-14.763 8.9297-25.031-0.5614-12.961-6.4503-22.308-18-28.57-5.9428-3.2221-6.9016-3.4304-15.826-3.4297zm93.5 0c-7.6072 0-9.8511 0.4009-14.5 2.5938-6.9635 3.2846-13.155 9.4847-16.719 16.742-2.3794 4.8452-2.7812 6.8923-2.7812 14.164 0 7.1145 0.4334 9.4238 2.6602 14.174 1.4632 3.1214 4.4431 7.6214 6.621 10 6.9436 7.5836 8.6816 12.046 8.7012 22.326 0.02 10.524-1.6232 14.769-9.1172 23.549-1.6586 1.9431-3.0447 3.8118-4.207 5.6797 19.911-20.327 39.852-40.646 60.717-61.682 1.9073-4.2279 2.625-8.5096 2.625-14.047 0-7.2717-0.4019-9.3188-2.7813-14.164-3.564-7.2575-9.7552-13.458-16.719-16.742-4.6489-2.1929-6.8927-2.5938-14.5-2.5938z" fill="#fff"/>
<path d="m1497.6 2083.5c-7.2728-0.016-9.9439 0.4163-13.92 2.25-7.5048 3.461-12.861 8.4139-16.646 15.396-3.2265 5.9512-3.4336 6.9079-3.4336 15.834 0 11.174 1.4949 15.031 9.4844 24.48 6.8382 8.0874 9.3444 14.947 8.7734 24.02-0.5165 8.2066-2.7808 13.211-9.7734 21.613-6.7865 8.1547-9.2948 15.328-8.7539 25.025 0.7537 13.513 8.8632 24.987 21.072 29.816 7.6269 3.0166 21.209 2.4447 28.197-1.1875 13.479-7.0062 21.333-22.578 18.445-36.57-1.5465-7.4941-3.8302-11.806-9.9512-18.801-11.838-13.527-11.494-30.634 0.8946-44.576 12.515-14.084 12.82-33.175 0.7441-46.541-1.9781-2.1895-6.4176-5.5011-9.8652-7.3594-5.7815-3.1163-6.9665-3.3816-15.268-3.4004zm-62.629 47.531c-20.864 21.035-40.803 41.351-60.713 61.678-2.8538 4.586-4.3157 9.1625-4.8418 14.797-1.3735 14.708 7.5236 28.784 21.947 34.717 6.4771 2.6642 20.635 2.0439 27.211-1.1914 6.6636-3.2783 13.102-9.9134 16.356-16.856 2.2507-4.8015 2.6642-7.0308 2.6367-14.195-0.028-7.2471-0.4344-9.2904-2.7656-13.865-1.5038-2.9511-4.5733-7.4511-6.8204-10-6.2251-7.0608-8.1477-11.555-8.6679-20.262-0.601-10.058 1.3263-15.758 7.9219-23.439 3.6454-4.2453 6.117-7.795 7.7363-11.383zm-31.391 138.27c-4.8024 0.01-9.6104 0.9445-13.6 2.8145-7.9048 3.7053-13.327 8.9945-17.121 16.701-2.8605 5.8104-3.2598 7.607-3.2598 14.664 0 7.0733 0.3976 8.847 3.293 14.728 7.8392 15.924 24.875 22.864 42.207 17.193 6.3138-2.0656 13.576-7.6843 17.088-13.221 11.728-18.489 5.0669-40.67-15.043-50.1-3.9668-1.86-8.762-2.7873-13.564-2.7813z" fill="#eceded"/>
</g>
</svg>
