<svg xmlns="http://www.w3.org/2000/svg" width="364" height="46" viewBox="18 44 364 46">
  <g fill-rule="evenodd">
    <path fill="#838484" d="M111.75 44.079c-.092.028-.729.146-1.417.26-3.172.53-5.497 1.426-8 3.084-1.485.984-3.666 3.113-3.666 3.578 0 .091-.058.166-.129.166-.071 0-.273.281-.45.625-.177.343-.409.737-.517.875-.107.137-.364.737-.57 1.333-.78 2.252-.828 2.993-.831 13-.003 9.597.036 10.341.668 12.548.299 1.042 1.903 3.952 2.178 3.952.083 0 .151.077.151.172 0 .16 1.14 1.325 2.027 2.072.643.541 3.347 2.182 3.973 2.41.32.117.733.278.916.358 4.228 1.843 11.606 1.843 15.834 0 .183-.08.596-.243.916-.362.321-.119.943-.427 1.383-.683.439-.257.87-.467.958-.467.088 0 .159-.075.159-.167 0-.091.096-.166.213-.166.117 0 .459-.225.76-.5.302-.275.581-.5.621-.5.466 0 3.262-3.486 3.744-4.667.093-.229.243-.567.332-.75.837-1.71.894-2.467.959-12.667.079-12.393-.101-13.474-2.844-17.038-.943-1.225-2.73-2.838-3.69-3.329-.281-.145-.549-.308-.595-.364-.275-.336-3.799-1.806-4.916-2.05-3.129-.686-7.152-1.042-8.167-.723m38.333.181c-3.212.641-4.011.9-6.583 2.128-1.03.492-3.44 2.27-4.258 3.143-.693.74-1.909 2.383-1.909 2.581 0 .062-.103.23-.228.375-.32.368-.908 2.018-1.281 3.596-.435 1.837-.493 19.752-.07 21.573.873 3.765 2.908 6.876 5.663 8.659.366.238.704.47.75.517.31.316 2.415 1.322 3.833 1.831 11.578 4.162 24.646-2.371 24.733-12.364.025-2.814.053-2.799-5.236-2.799-4.913 0-4.619-.14-5.247 2.5-1.119 4.701-8.752 6.094-12.444 2.271-1.568-1.624-1.641-2.128-1.64-11.287.001-9.414.056-9.736 1.962-11.495 3.678-3.396 10.425-2.292 12.445 2.038.583 1.25.467 1.223 5.19 1.223 5.173 0 5.001.074 4.964-2.134-.063-3.654-2.505-7.454-6.276-9.762-.618-.378-1.164-.687-1.214-.687-.05 0-.48-.174-.956-.386-3.481-1.554-8.745-2.21-12.198-1.521M19.284 45.266c-.71.385-.784.815-.782 4.537.004 5.296-.594 4.864 6.726 4.864h5.439v33.281l.416.484.416.485h4.209c4.691 0 4.925-.032 5.335-.728.271-.457.29-1.613.29-17.006V54.667l5.375-.001c7.279-.001 6.66.484 6.589-5.159l-.047-3.744-.566-.381-.567-.382-16.183.007c-14.137.006-16.243.038-16.65.259m38.395-.097c-1.272.299-1.171-1.579-1.175 21.863L56.5 87.981l.402.468.402.468h4.406c3.671 0 4.456-.042 4.707-.25.76-.631.75-.384.75-17.662V54.667h4.998c4.957 0 5.007.003 6.05.421.982.393 2.618 1.655 2.618 2.019 0 .088.086.246.191.351 1.78 1.78.424 5.901-2.353 7.148-.231.104-.695.31-1.03.458-.428.19-1.104.269-2.286.269-3.094 0-3.19.156-3.186 5.186.004 4.33.195 5.184 1.546 6.898.072.091.47.691.884 1.333.415.642.875 1.329 1.023 1.528.148.198 1.363 1.996 2.7 3.994 1.916 2.866 2.588 3.74 3.179 4.139l.749.505 4.417.054c6.784.082 7.341-.313 5.04-3.578-.526-.746-1.444-2.073-2.04-2.949-1.339-1.967-2.955-4.303-3.131-4.526-.199-.254-1.763-2.563-1.953-2.884-.091-.156-.204-.321-.25-.366-.095-.096-.713-.986-.888-1.28-.076-.129.312-.406 1.123-.802.682-.332 1.33-.713 1.44-.845.11-.132.268-.24.351-.24.792 0 4.146-4.193 4.933-6.167.092-.229.251-.626.354-.883.701-1.742.94-4.979.544-7.367-.492-2.975-1.452-5.186-3.107-7.159-2.457-2.93-5.936-4.383-11.378-4.752-2.953-.2-19.18-.203-20.026-.003m130.488.091c-.54.224-1.5 1.418-1.5 1.863 0 .095-.112.387-.249.65-.137.262-.25.604-.25.759-.001.155-.076.328-.168.385-.092.056-.167.271-.167.476 0 .206-.069.445-.155.532-.151.154-.361.692-1.008 2.575-.174.504-.474 1.329-.668 1.833-.194.504-.469 1.254-.61 1.667-.142.413-.353.975-.468 1.25-.545 1.296-.646 1.56-.931 2.417-.168.504-.465 1.329-.661 1.833-.197.504-.419 1.104-.494 1.333-.137.413-1.588 4.314-2.203 5.917-.175.458-.431 1.171-.569 1.583-.137.413-.32.9-.406 1.084-.176.375-.96 2.445-1.167 3.083-.074.229-.295.829-.491 1.333s-.497 1.329-.669 1.834c-.171.504-.474 1.329-.672 1.833-.199.504-.4 1.087-.448 1.294-.047.208-.152.418-.233.468-.081.05-.149.255-.152.456-.003.201-.115.511-.25.689-.135.178-.245.482-.245.675 0 .193-.072.424-.161.513-.089.088-.311.609-.494 1.158-.183.548-.486 1.441-.673 1.983-.76 2.205-.432 2.335 5.654 2.24l3.845-.059.457-.5c.441-.483.962-1.616 1.379-3 .11-.367.279-.816.374-.999.095-.183.231-.558.301-.833.071-.276.24-.802.375-1.168l.246-.667h16.09l.123.417c.068.229.286.829.485 1.333.198.504.4 1.067.447 1.25.294 1.131 1.154 3.135 1.55 3.609l.466.558 3.861.059c6.913.107 6.76.288 4.562-5.393-.512-1.325-.722-1.885-1.904-5.083-.66-1.788-1.373-3.738-1.584-4.333-.211-.596-.54-1.496-.733-2-.192-.505-.463-1.255-.602-1.667-.139-.413-.36-.986-.492-1.275-.131-.289-.238-.63-.238-.759 0-.128-.066-.304-.146-.391-.081-.087-.302-.608-.493-1.158-.19-.55-.504-1.413-.698-1.917-.193-.504-.492-1.329-.663-1.833-.172-.504-.472-1.33-.667-1.834-.195-.504-.496-1.329-.67-1.833-.508-1.479-.82-2.318-.976-2.627-.081-.159-.279-.702-.44-1.206-.162-.504-.358-.988-.437-1.075-.079-.087-.144-.264-.144-.392s-.107-.469-.238-.758c-.132-.289-.353-.863-.492-1.275-.139-.413-.411-1.163-.605-1.667s-.496-1.352-.672-1.885c-.659-2.003-1.327-3.034-2.209-3.414-.72-.311-8.181-.261-8.95.059m28.471-.071c-.819.3-.805-.087-.805 21.993v20.799l.402.468.403.468h4.306c2.368 0 4.503-.056 4.744-.123.755-.213.812-.877.812-9.451V71.5h8.85c9.804 0 9.775.003 10.138-1.038.385-1.103.228-7.007-.203-7.646l-.382-.566-9.201-.043-9.202-.043v-7.488l10.375-.046c12.937-.058 11.625.486 11.625-4.821 0-3.79-.11-4.267-1.057-4.61-.702-.254-30.113-.263-30.805-.01m76.012.193l-.567.381-.042 21.092-.042 21.092.416.485.417.485h4.209c4.691 0 4.925-.032 5.336-.728.268-.453.29-1.368.29-12.102 0-10.321.027-11.583.25-11.361.137.138.25.292.25.343 0 .107 1.02 1.807 1.16 1.931.051.046.24.365.421.708.18.344.386.625.457.625.07 0 .128.075.128.167 0 .091.943 1.685 2.095 3.541 1.153 1.857 2.184 3.523 2.292 3.703.25.416 1.454 2.348 1.874 3.006.577.904.652 1.031 1.053 1.769.219.402.451.768.517.814.065.046.326.459.578.917.253.458.543.935.644 1.059.259.318.59.889.714 1.233.058.16.163.291.233.291.071 0 .176.132.234.292.126.35.387.785.891 1.488.207.287.375.588.375.67 0 .081.341.482.757.891l.758.743h8.466l.385-.413.384-.413.05-20.504c.054-22.587.078-21.796-.686-22.263-.707-.43-8.129-.497-8.935-.08-.763.394-.76.347-.81 12.464-.027 6.394-.102 11.625-.168 11.625-.065 0-.226-.243-.356-.541-.266-.608-.862-1.513-1.053-1.598-.069-.03-.125-.122-.125-.204 0-.082-.83-1.482-1.845-3.111-1.014-1.629-1.933-3.11-2.041-3.29-.428-.712-1.673-2.695-1.939-3.089-.154-.229-.333-.529-.397-.667-.064-.137-.322-.564-.572-.947-.251-.384-.672-1.059-.936-1.5-.264-.442-.733-1.19-1.042-1.664-.309-.474-.561-.943-.561-1.042 0-.099-.058-.18-.129-.18-.071 0-.275-.281-.454-.625s-.477-.85-.663-1.125c-.496-.732-.742-1.135-.868-1.417-.062-.137-.157-.287-.213-.333-.056-.046-.357-.496-.669-1-1.23-1.985-1.276-2-6.055-2-3.789 0-3.916.011-4.466.382m42.155-.193c-.819.3-.805-.087-.805 21.993v20.799l.402.468.402.468 15.337.047c16.803.052 16.748.055 17.313-.783.588-.873.586-7.159-.002-8.031l-.382-.567-11.202-.043-11.201-.042v-8.665l9.208-.002c10.142-.002 9.817.021 10.29-.745.495-.801.509-6.881.018-7.687-.449-.737-.384-.732-10.454-.732h-9.062v-7h10.344c7.29 0 10.452-.055 10.708-.187.913-.466.94-.603.94-4.647 0-4.043-.027-4.18-.94-4.647-.474-.243-30.251-.239-30.914.003m41.069.003c-.148.149-.207.979-.207 2.928v2.72l.429.196c.769.351.975.039 1.081-1.637.051-.815.108-1.323.125-1.129.19 2.131 1.776 2.618 2.376.73l.239-.75.083 1.33c.091 1.446.563 1.99 1.24 1.428.336-.279.39-5.478.06-5.808-.683-.683-1.479-.139-2.034 1.389-.63 1.736-.661 1.738-1.302.078-.605-1.569-1.42-2.144-2.09-1.475m-5.512.118c-.616.397-.149 1.105.763 1.157l.875.05v2.23c0 2.412.091 2.625 1 2.336.311-.099.333-.252.333-2.336v-2.23l.875-.05.875-.05V45.25l-2.25-.042c-1.237-.023-2.349.023-2.471.102M116 53.765c.596.14 1.25.296 1.453.346.204.051.457.197.562.324.106.127.279.232.386.232.568 0 2.085 1.934 2.506 3.196l.426 1.279v7.816c0 8.327.006 8.259-.845 10.157-1.982 4.417-10.721 4.396-12.977-.032-.793-1.557-.844-2.173-.844-10.171 0-7.891.027-8.238.784-9.912.269-.595 1.841-2.323 2.119-2.33.085-.002.272-.103.417-.224.273-.228 1.112-.512 2.263-.766 1.035-.228 2.561-.193 3.75.085m77.336 6.152c.33 1.124.865 2.7 1.09 3.214.133.301.241.651.241.778s.106.443.237.702c.131.26.465 1.185.743 2.056.535 1.677.642 1.996 1.194 3.583.192.55.413 1.206.492 1.458l.144.459h-9.516l.091-.375c.049-.207.438-1.35.864-2.542.426-1.192.834-2.392.908-2.667.175-.652.825-2.573 1.015-3 .081-.183.493-1.383.914-2.666.421-1.284.805-2.446.853-2.584.085-.243.386.41.73 1.584"/>
    <path fill="#f48324" d="M265.917 44.27c-4.869.864-7.554 2.077-10.471 4.73-.969.882-2.448 2.837-2.773 3.667-.126.32-.285.659-.355.751-.848 1.134-1.145 3.685-1.148 9.874-.004 6.464-.162 6.132 1.917 4.024 2.397-2.431 2.66-2.433 5.053-.04.857.857 1.625 1.557 1.709 1.557.088 0 .151-2.885.151-6.92v-6.92l.417-.66c.844-1.337.819-1.333 8.666-1.333 6.472 0 6.971.021 7.549.316 1.364.696 1.535 1.186 1.535 4.408v2.728l1.487 1.435c2.415 2.327 2.634 2.296 5.696-.804 1.645-1.664 1.647-1.668 1.645-2.5-.004-1.919-1.102-5.87-1.83-6.583-.047-.046-.302-.418-.568-.828-1.238-1.908-4.246-4.301-6.597-5.248-2.646-1.066-2.64-1.065-5.667-1.59-2.211-.384-4.483-.407-6.416-.064m19.161 21.323c-2.694 2.909-3.032 2.943-5.371.54-.696-.715-1.327-1.3-1.403-1.3-.075 0-.137 3.079-.137 6.842 0 7.592.024 7.408-1.112 8.275l-.613.467H261.75l-.53-.378c-1.093-.78-1.22-1.205-1.22-4.074v-2.579l-1.822-1.776c-2.531-2.469-2.691-2.463-5.386.197l-1.625 1.603v1.504c0 2.244.454 4.267 1.421 6.336.347.743.929 1.637 1.12 1.722.069.031.125.13.125.221 0 .166 1.315 1.637 1.9 2.126.175.145.449.389.611.542.985.929 4.27 2.612 6.239 3.196 3.965 1.175 10.033 1.158 13.117-.038.211-.082.721-.28 1.133-.44 5.7-2.208 8.916-5.744 9.923-10.912.276-1.417.364-13.834.098-13.834-.08 0-.879.792-1.776 1.76m-16.836 10.316c-.908.909-.397 2.26.854 2.255.748-.003.944-.102 1.212-.611.691-1.313-1.029-2.681-2.066-1.644"/>
  </g>
</svg>
