<?xml version="1.0" encoding="UTF-8"?>
<svg version="1.1" viewBox="0 0 580 780" xmlns="http://www.w3.org/2000/svg">
<!-- Pandas -->
<path fill="#ffffff" d="m371 636c-7.2998 0-10.017 0.33753-10.062 1.25-0.0342 0.6875-0.04619 8.1125-0.02539 16.5s-0.15435 15.25-0.38867 15.25-3.0182-0.675-6.1856-1.5c-7.4153-1.9314-17.34-1.9099-24.877 0.05273-17.315 4.5087-24.982 16.324-24.943 38.447 0.0409 23.606 10.058 37.513 29.482 40.934 9.3421 1.645 34.297-0.31308 45.25-3.5508 1.6384-0.48431 1.75-3.9267 1.75-53.951v-53.432h-10zm-307 0.14844c-2.9619 2e-3 -6.2124 0.02545-9.791 0.06445l-26.291 0.28711 0.03125 55.5c0.0181 30.525 0.037768 55.612 0.042968 55.75s4.5054 0.25 10 0.25h9.9902l0.25976-46.75 0.25977-46.75 14.592-0.27539c9.8378-0.18596 15.855 0.13987 18.465 1 10.296 3.3933 11.516 18.237 2.1738 26.439-3.6197 3.1781-12.564 7.0778-18.48 8.0586-1.7875 0.29631-3.2464 0.81767-3.2422 1.1582 0.01309 1.0731 1.9877 13.518 2.5137 15.842 0.42785 1.8905 0.98609 2.1392 3.7402 1.6699 11.173-1.9039 25.437-7.7441 31.621-12.947 16.942-14.255 15.941-45.914-1.7344-54.871-6.7773-3.4343-13.417-4.4383-34.15-4.4258zm457.57 29.371c-6.8446 0.0718-13.177 0.63391-16.635 1.7051-12.53 3.882-18.047 11.33-18.047 24.363 0 8.9252 2.3683 15.015 7.2422 18.623 5.1957 3.8459 6.3524 4.0913 22.23 4.7383 14.682 0.59828 14.889 0.63994 17.25 3.3848 3.0402 3.5344 3.0307 6.8077-0.02735 10.359-2.4101 2.799-2.4455 2.8056-14.75 2.748-8.6154-0.0403-14.294-0.59636-18.834-1.8477-10.132-2.7924-9.5-3.1857-9.5 5.9062v8l5.4941 1.8223c3.0219 1.0018 9.7719 2.1701 15 2.5976 21.475 1.7562 35.674-1.9132 41.49-10.725 3.5569-5.3882 4.8839-12.748 3.5762-19.822-1.4559-7.8755-4.9008-12.751-11.314-16.008-3.5537-1.8048-5.4643-2.4251-11.604-2.8086-2.082-0.13004-4.6517-0.23314-7.9356-0.3457-16.362-0.56086-19.22-1.6822-19.191-7.5332 0.0164-3.4002 0.51311-4.4187 3.1816-6.5078 4.5035-3.5256 26.021-3.0518 37.275 0.82031 6.7187 2.3116 6.7399 2.284 6.3242-8.084l-0.29688-7.4062-7-1.8809c-4.8735-1.31-13.038-2.0224-20.973-2.0996-0.99184-0.01-1.9792-0.0103-2.957 0zm-308.57 0.48047v40.334c0 22.183 0.29935 40.633 0.66602 41 0.36666 0.36667 5.0917 0.66602 10.5 0.66602h9.834v-28.326c0-28.082 0.0193-28.343 2.25-30.438 5.7562-5.4038 18.736-8.0224 25.189-5.082 5.835 2.6586 6.0314 3.7436 6.3789 35.096l0.31836 28.75h19.863v-30.463c0-28.227-0.15014-30.863-2.043-35.922-3.8074-10.176-13.074-15.615-26.604-15.615-7.8308 0-14.204 2.0946-21.559 7.084-3.1378 2.1288-5.9062 3.5425-6.1523 3.1426-0.24612-0.39991-0.76721-2.8641-1.1582-5.4766l-0.71094-4.75h-16.773zm224.42 0.61914c-1.4606 2e-3 -3.0893 0.01244-4.916 0.02734-9.3972 0.0768-18.476 0.69275-22 1.4922l-6 1.3613-0.29102 8.25c-0.15975 4.5375 0.0652 8.2381 0.5 8.2246 0.43474-0.0134 2.5914-0.44044 4.793-0.94922 2.2016-0.50879 8.2397-1.4388 13.418-2.0684 18.352-2.2314 25.869 0.78337 26.828 10.764l0.49023 5.1016-12.049-0.55469c-25.288-1.1651-38.902 5.5736-40.725 20.16-1.8757 15.012 6.0866 26.131 20.455 28.562 10.242 1.7335 18.815 0.65122 27.938-3.5254l5.502-2.5195 3.668 3.582c3.4789 3.3971 3.9722 3.5661 9.5703 3.2774l5.9023-0.30469 0.26562-28.939c0.2226-24.251 5e-3 -29.841-1.3496-34.5-2.0118-6.9211-7.0109-11.953-15.111-15.211-4.6393-1.8657-6.6646-2.2448-16.889-2.2305zm-277.05 0.02539c-1.449-9.3e-4 -3.0598 0.00598-4.8633 0.01758-9.561 0.0614-18.415 0.65342-22 1.4707l-6 1.3672-0.29102 8.25c-0.15975 4.5375-0.0757 8.25 0.18555 8.25 0.26129 0 3.5426-0.63067 7.291-1.4023 25.094-5.166 36.957-2.3729 38.047 8.9609l0.47461 4.9414h-15.854c-17.69 0-23.18 1.26-30.004 6.8848-9.1749 7.5627-10.057 24.4-1.7598 33.584 4.0046 4.4326 8.7197 6.9054 15.27 8.0117 10.092 1.7046 19.628 0.4824 27.928-3.5781l5.3887-2.6367 3.7598 3.6719c3.5814 3.4971 4.0398 3.6572 9.6621 3.3672l5.9023-0.30469-0.00586-30c-4e-3 -21.157-0.37589-31.222-1.2598-34.143-1.6895-5.5829-8.0772-11.748-15.057-14.533-4.4791-1.7871-6.6713-2.1732-16.814-2.1797zm182.97 16.521c1.3684-0.0248 2.8301 0.0357 4.3926 0.17968 6.8237 0.62901 11.677 2.6482 12.686 5.2754 0.35761 0.93191 0.60233 9.9211 0.54492 19.977-0.0835 14.636-0.39282 18.521-1.5508 19.482-0.79555 0.66025-5.5983 1.4028-10.674 1.6504-8.2869 0.4042-9.6876 0.20824-13.729-1.9277-6.151-3.2513-9.191-9.3721-9.7832-19.693-0.53374-9.3034 0.90363-15.04 4.916-19.609 3.0838-3.5123 7.2676-5.2264 13.197-5.334zm-188.79 28.941c6.488-0.0789 16.065 0.52822 17.344 1.3184 0.61625 0.38086 1.1191 3.2909 1.1191 6.4785 0 6.8899-1.1327 8.2393-9.332 11.121-9.821 3.4518-19.625 1.8486-21.676-3.5449-2.8273-7.4364 0.29452-13.694 7.5078-15.047 1.054-0.19772 2.8744-0.29986 5.0371-0.32617zm279.54 0.08399c6.1601-0.0808 13.41 0.3723 14.783 1.2207 0.66253 0.40947 1.1426 3.3801 1.1426 7.0742v6.3672l-5.4941 2.6875c-6.9441 3.3974-16.568 4.2808-21.123 1.9394-8.1618-4.1948-6.7603-15.551 2.2871-18.537 1.406-0.46404 4.7082-0.70346 8.4043-0.75195z"/>
<!-- Tree -->
<path fill="#316a99" d="m435.93 83.311c-1.4889 0.02395-2.8275 0.13636-3.918 0.35352l-4.4863 0.89453-1.6562 14.971c-1.9134 17.302-2.3569 19.384-5.4199 25.473-3.7897 7.5335-9.4607 11.903-18.949 14.604-4.8962 1.3938-12.255 1.817-40 2.3008l-34 0.59375-5.625 2.7617c-5.6548 2.777-9.1619 6.766-11.641 13.238-2.4166 6.3114-3.2302 15.599-3.2949 37.598-0.0745 25.312 1.1316 33.484 5.8867 39.902 3.4382 4.6409 4.7341 5.6694 10.846 8.5977 6.2573 2.9982 16.566 5.2465 29.328 6.3965 17.678 1.5929 35.483-0.38561 45.363-5.0391 7.3993-3.485 14.208-10.897 16.492-17.955 1.7046-5.267 3.1403-18.254 2.4726-22.367l-0.58984-3.6328-19.619-0.01562c-19.019-0.0151-29.794-1.2588-32.26-3.7246-1.5712-1.5712 3.6173-4.2543 11.459-5.9258 7.6358-1.6276 15.886-1.4755 39.682 0.73243 13.092 1.2148 29.051 0.7586 35-1 5.5893-1.6522 13.112-7.1741 16.801-12.332 7.276-10.173 11.762-30.242 10.891-48.732-1.0412-22.101-8.6496-36.838-22.729-44.021-4.2912-2.1892-13.579-3.7737-20.031-3.6699h-0.00195zm-42.93 128.69a10 10 0 0 1 10 10 10 10 0 0 1 -10 10 10 10 0 0 1 -10 -10 10 10 0 0 1 10 -10zm-54.578 49.578l0.00195 0.00196c-1.4353-2e-3 -2.2848 0.02298-2.3516 0.08008-0.23483 0.2009 0.10968 18.023 0.76562 39.605 1.4476 47.63 1.5215 129.27 0.14063 155.24-2.2996 43.25-8.1903 79.216-15.24 93.055-4.7338 9.2917-13.617 16.717-25.629 21.418-11.264 4.4083-41.322 7.6387-102.61 11.029-18.295 1.0122-58.003 3.3055-79.184 4.5723-5.6014 0.33501-10.936 1.1565-11.852 1.8262-1.8144 1.3268-3.7764 9.624-2.5703 10.871 0.41046 0.42444 2.7402 1.1949 5.1758 1.7109 5.4845 1.1621 76.317 0.48405 94.93-0.9082 64.437-4.82 169.45-5.497 235.09-1.5176l10.594 0.64062-0.85937-6.8476c-0.47217-3.767-1.0752-7.8221-1.3398-9.0117-0.55395-2.4904-5.6871-5.5826-17.076-10.283-19.385-8.0009-22.425-11.654-25.387-30.508-4.4242-28.166-8.8029-131.93-6.1074-144.73 1.1832-5.6184 4.4837-11 11.541-18.82 5.2264-5.7914 6.8947-9.9787 6.3281-15.875-0.57388-5.9726-2.4024-8.3679-10.785-14.125-6.9648-4.7832-9.2059-7.2745-12.143-13.5-2.2385-4.7461-2.3512-5.9649-2.2188-24 0.0768-10.45 0.53004-25.468 1.0059-33.375 0.57183-9.5028 0.52346-14.505-0.14063-14.756-1.2016-0.4544-40.033-1.7759-50.08-1.793z"/>
<!-- Bear -->
<path fill="#ffd541" d="m354.03 24.086c-6.2217 0.010459-11.935 0.30095-16.201 0.91797-23.792 3.4414-33.76 16.886-31.377 42.32l0.70508 7.5156 23.172 0.39258c22.147 0.37427 29.674 1.334 29.674 3.7832 0 0.45071-2.1375 1.6444-4.75 2.6523-5.0794 1.9598-14.27 2.1612-56.25 1.2383-17.231-0.37881-18.98-0.24803-25.5 1.8965-19.859 6.5318-27.5 21.4-27.5 53.508 0 30.174 8.202 48.221 24.188 53.211 2.3997 0.74903 9.0447 1.3749 14.992 1.4121 9.3424 0.0585 10.749-0.15313 11.207-1.6836 0.28805-0.9625 1.4193-8.275 2.5137-16.25 2.3997-17.487 4.2959-23.704 8.8555-29.031 7.9436-9.2803 16.396-10.964 55.08-10.98 31.059-0.0129 36.001-0.63192 43.213-5.4043 9.0064-5.9601 11.838-15.722 12.639-43.584 1.2059-41.96-3.5405-52.51-26.262-58.385-8.5687-2.2155-24.709-3.5523-38.396-3.5293h-0.00195zm-20.865 14.824a10 10 0 0 1 10 10 10 10 0 0 1 -10 10 10 10 0 0 1 -10 -9.998 10 10 0 0 1 10 -10.002zm-71.301 159.83l-6.3203 0.50781c-4.537 0.36418-8.858 1.6761-15.314 4.6504-10.886 5.0146-16.282 6.6471-26.6 8.0488-4.3291 0.58816-9.7924 1.9204-12.141 2.959-5.1333 2.2707-24.007 14.143-34.738 21.852-7.5046 5.3909-7.7495 5.6966-7.7363 9.6562 0.0244 7.3014 0.62209 8.1249 8.084 11.129 3.8117 1.5345 7.3331 3.2781 7.8242 3.875 0.98807 1.201 4.6023 22.405 5.5547 32.586 0.77746 8.311-0.73397 18.772-4.4648 30.9-1.624 5.2794-4.071 16.386-5.4375 24.682-1.3665 8.2956-3.2207 17.296-4.1211 20-0.90035 2.7044-6.6944 12.568-12.875 21.918-14.299 21.631-18.388 28.708-23.492 40.668-6.9804 16.355-8.4364 23.225-8.4414 39.832-4e-3 13.24 0.2306 15.152 2.6953 22 3.1004 8.6142 7.8319 16.712 15.188 26 2.8312 3.575 5.6638 7.4696 6.2949 8.6543 1.6446 3.0873-0.17016 11.792-4.7578 22.824-4.4132 10.612-5.3492 14.877-4.4707 20.371 0.4829 3.0199 1.1855 4.1636 2.7773 4.5234 4.6739 1.0565 57.028-0.27109 72.613-1.8418 9.065-0.91359 16.663-1.8424 16.885-2.0644 1.0644-1.0644-3.2879-5.5369-7.375-7.5781-2.5169-1.257-5.0093-2.8069-5.5391-3.4453-1.2248-1.4758 0.261-5.6949 7.0254-19.943 9.4102-19.822 9.9432-22.852 7.0508-40-3.4892-20.686-4.1919-18.548 11.955-36.365 22.651-24.994 28.916-35.705 36.047-61.629 2.5819-9.386 4.9679-15.948 6.5508-18.023 2.577-3.3786 7.5044-6.8678 27.918-19.771 6.6-4.1721 13.575-8.9137 15.5-10.537l3.5-2.9512 0.35352-21.281c0.19455-11.704-0.15468-28.408-0.77539-37.121-1.1381-15.975-3.5499-32.691-4.9141-34.055-1.3155-1.3155-7.8267 4.0069-9.6973 7.9258-1.2124 2.54-2.0818 7.6455-2.6074 15.311-1.3459 19.626-2.713 24.174-8.8008 29.297-4.0013 3.3669-13.226 6.7776-20.061 7.418l-5.5 0.51562-5.1973-5.1191c-7.0436-6.9367-11.431-16.277-16.727-35.611-2.4102-8.8-5.325-18.576-6.4785-21.725-4.0028-10.927-2.4842-17.507 6.4336-27.881 8.8979-10.351 10.416-17.222 6.0273-27.275l-1.6953-3.8828v-0.00195z"/>
</svg>
