<svg width="891" height="518" enable-background="new 0 0 512 512" version="1.1" viewBox="0 0 891 518" xmlns="http://www.w3.org/2000/svg" xmlns:xlink="http://www.w3.org/1999/xlink">
 <defs>
  <linearGradient id="a" x1="-4.56" x2="886" y1="518" y2="-.227" gradientTransform="translate(4.56 .227)" gradientUnits="userSpaceOnUse">
   <stop stop-color="#cc2b5e" stop-opacity=".987" offset="0"/>
   <stop stop-color="#753a88" stop-opacity=".983" offset="1"/>
  </linearGradient>
 </defs>
 <rect width="891" height="518" fill="url(#a)" fill-rule="evenodd"/>
 <g transform="translate(4.56 .227)" fill="#544f57">
  <path d="m453 136c-2.7 0-5.32-1.44-6.7-3.99l-20.8-38.4c-2-3.7-0.624-8.32 3.07-10.3 3.7-2 8.32-0.625 10.3 3.07l20.8 38.4c2 3.7 0.624 8.32-3.07 10.3-1.15 0.623-2.39 0.919-3.62 0.919z"/>
  <path d="m464 194c-1.86 0-3.73-0.68-5.2-2.05l-26.5-24.8c-2.45-2.3-3.11-5.93-1.62-8.94l16.4-33c1.43-2.89 4.53-4.56 7.72-4.18l36.6 4.37c3.34 0.398 6.02 2.94 6.6 6.24l6.26 35.7c0.725 4.14-2.04 8.08-6.18 8.81-4.14 0.728-8.08-2.04-8.81-6.18l-5.28-30.2-25.6-3.06-11.5 23.1 22.4 20.9c3.07 2.87 3.23 7.69 0.358 10.8-1.5 1.6-3.53 2.41-5.56 2.41z"/>
  <path d="m288 504h-221c-15.3 0-27.7-12.4-27.7-27.7v-151c0-17.8 16.6-31 34-27l221 51.6c12.5 2.92 21.4 14.1 21.4 27v99.4c0 15.3-12.4 27.7-27.7 27.7z"/>
 </g>
 <path d="m299 351-8.16-1.9c1.24 3.76 1.94 7.83 1.94 12.1v119c0 10.2-3.89 19.3-10 25.4h9.93c15.3 0 27.7-12.4 27.7-27.7v-99.4c1e-3 -12.9-8.86-24-21.4-27z" fill="#454045"/>
 <circle cx="129" cy="153" r="58.4" fill="#544f57"/>
 <path d="m129 94.6c-3.36 0-6.65 0.3-9.86 0.845 27.6 4.69 48.6 28.7 48.6 57.6s-21 52.9-48.6 57.6c3.21 0.545 6.5 0.845 9.86 0.845 32.3 0 58.4-26.2 58.4-58.4s-26.2-58.4-58.4-58.4z" fill="#454045"/>
 <circle cx="129" cy="153" r="26" fill="#909ba5"/>
 <path d="m178 184c-10.4 16.3-28.6 27.1-49.3 27.1-9.83 0-19.1-2.44-27.2-6.73l52.1 112 95.4 22.3z" fill="#e49824"/>
 <path d="m154 317 95.4 22.3-9.36-20.4-95.6-22.3z" fill="#df8621"/>
 <path d="m186 203-8.4-18.3c-10.4 16.3-28.6 27.1-49.3 27.1-9.83 0-19.1-2.44-27.2-6.73l10.5 22.5c5.38 1.21 11 1.86 16.7 1.86 23.1-1e-3 43.8-10.3 57.7-26.5z" fill="#df8621"/>
 <circle cx="310" cy="32.8" r="32.5" fill="#544f57"/>
 <path d="m323 2.92c-7.06-3.06-14.6-3.42-21.5-1.54 1.48 0.404 2.94 0.911 4.39 1.54 16.5 7.15 24 26.3 16.9 42.8-4.09 9.42-12.1 15.9-21.3 18.4 15.4 4.21 31.9-3.4 38.4-18.4 7.15-16.5-0.416-35.6-16.9-42.8z" fill="#454045"/>
 <path d="m306 65.1c-16.2-1.81-28.9-15.6-28.9-32.3 0-1.18 0.066-2.34 0.188-3.48l-149 65.4c32.3 0 58.4 26.2 58.4 58.4 0 11.5-3.35 22.3-9.1 31.3z" fill="#e49824"/>
 <path d="m277 32.8c0-1.18 0.066-2.34 0.188-3.48l-18.8 8.25c1.7 18 12.9 34.6 30.7 42.3 0.217 0.094 0.436 0.173 0.653 0.264l16.1-15c-16.2-1.81-28.9-15.6-28.9-32.3z" fill="#df8621"/>
 <path d="m205 160c0.188-2.18 0.305-4.39 0.305-6.62 0-32.1-19.9-59.6-48.1-70.8l-28 12.3c32.3 0 58.4 26.2 58.4 58.4 0 11.5-3.35 22.3-9.1 31.3z" fill="#df8621"/>
 <path d="m437 66.9-108-60.7c12.3 8.69 17.3 25.1 11.1 39.5-5.82 13.4-19.6 20.9-33.4 19.4l113 40.8c9.01 3.26 19.1 0.172 24.7-7.58 7.58-10.4 4.36-25.1-6.88-31.4z" fill="#e49824"/>
 <path d="m340 45.7c-5.82 13.4-19.6 20.9-33.4 19.4l30.8 11.2c8.51-5.32 15.6-13.2 19.8-23.1 4.14-9.54 5.14-19.6 3.48-29.2l-31.8-17.8c12.3 8.69 17.3 25.1 11.1 39.5z" fill="#df8621"/>
 <path d="m44.2 477c0 15.3 12.4 27.7 27.7 27.7h126v-65.8c0-28.1-22.8-51-51-51h-103z" fill="#e49824"/>
 <path d="m147 388h-19.4c28.1 0 51 22.8 51 51v65.8h19.4v-65.8c0-28.1-22.8-51-51-51z" fill="#df8621"/>
 <g fill="#544f57">
  <path d="m149 454h-56.7c-4.2 0-7.61-3.41-7.61-7.61s3.41-7.61 7.61-7.61h56.7c4.2 0 7.61 3.41 7.61 7.61s-3.41 7.61-7.61 7.61z"/>
  <path d="m187 302c-2.88 0-5.64-1.64-6.92-4.44l-25.7-55.8c-1.75-3.82-0.08-8.34 3.74-10.1 3.82-1.76 8.34-0.08 10.1 3.74l25.7 55.8c1.75 3.82 0.08 8.34-3.74 10.1-1.03 0.473-2.11 0.697-3.17 0.697z"/>
  <path d="m211 107c-2.61 0-5.15-1.34-6.57-3.75-2.13-3.62-0.923-8.29 2.7-10.4l31.1-18.3c3.62-2.13 8.29-0.923 10.4 2.7 2.13 3.62 0.923 8.29-2.7 10.4l-31.1 18.3c-1.21 0.713-2.54 1.05-3.85 1.05z"/>
 </g>
 <path d="m403 512h-383c-4.2 0-7.61-3.41-7.61-7.61s3.41-7.61 7.61-7.61h383c4.2 0 7.61 3.41 7.61 7.61s-3.41 7.61-7.61 7.61z" fill="#5ea570"/>
</svg>
